<svg id="regular" enable-background="new 0 0 24 24" height="512" viewBox="0 0 24 24" width="512" xmlns="http://www.w3.org/2000/svg"><path d="m23.352 21.341c-1.057-.145-1.173-.497-1.223-.646l-7.75-20.211c-.111-.29-.389-.481-.699-.481-1.856-.003-3.711-.004-5.571-.002-.247 0-.479.122-.618.326s-.17.464-.08.694l.883 2.282-6.614 17.577c-.078.227-.39.365-1.04.461-.368.055-.64.371-.64.742v1.167c0 .414.336.75.75.75h6.848c.41 0 .745-.33.75-.741.004-.382 0-.809-.003-1.188-.009-1.15-1.55-.553-2.546-.991-.045-.018-.097-.077-.103-.131-.036-.498.187-.548 1.075-3.247.061-.185.121-.369.182-.55h6.787l.001.001c.237.645 1.378 3.402 1.065 3.801-.292.323-.52.327-1.399.398-.39.031-.689.357-.689.748v1.15c0 .414.336.75.75.75h9.782c.414 0 .75-.336.75-.75v-1.166c0-.375-.276-.692-.648-.743zm-8.123 1.159c.242-.128.483-.312.721-.575.932-1.166.061-2.951-.801-5.29l-.181-.491c-.108-.295-.39-.492-.704-.492h-7.848c-.319 0-.604.202-.708.504-.122.349-.241.711-.361 1.078-.967 2.931-1.215 2.888-1.145 3.843.061.624.472 1.173 1.019 1.388.028.013.057.024.086.036h-3.248c.429-.205.836-.542 1.032-1.111l6.598-17.553c.172-.328.172-.717.026-1.008l-.512-1.329c1.321 0 2.64 0 3.96.001l7.554 19.696c.191.583.602 1.018 1.225 1.302h-6.713z"/><path d="m12.682 9.841c-.447-1.508-.909-3.068-1.449-4.47-.113-.292-.41-.476-.709-.48-.314.004-.592.202-.698.498-.735 2.055-1.645 4.387-2.523 6.644l-.832 2.144c-.09.23-.06.49.08.693.14.204.37.326.617.327l3.979.002h2.237c.247 0 .479-.122.618-.325.14-.204.171-.463.082-.694-.516-1.342-.966-2.866-1.402-4.339zm-4.416 3.855.435-1.12c.612-1.571 1.239-3.179 1.813-4.709.253.79.493 1.603.729 2.4.339 1.144.687 2.318 1.07 3.43z"/></svg>