<?xml version="1.0" encoding="iso-8859-1"?>
<!-- Generator: Adobe Illustrator 19.0.0, SVG Export Plug-In . SVG Version: 6.00 Build 0)  -->
<svg version="1.1" id="Capa_1" xmlns="http://www.w3.org/2000/svg" xmlns:xlink="http://www.w3.org/1999/xlink" x="0px" y="0px"
	 viewBox="0 0 511.998 511.998" style="enable-background:new 0 0 511.998 511.998;" xml:space="preserve">
<g>
	<g>
		<path d="M473.255,77.508c-50.401-50.399-131.673-51.798-183.778-3.163v0c-1.1,1.033-2.189,2.089-3.267,3.167
			c-0.086,0.086-0.112,0.203-0.193,0.291L156.485,207.244c-9.766,9.757-12.69,24.438-7.408,37.192
			c5.282,12.754,17.728,21.07,31.533,21.067c0.428,0,0.85-0.106,1.278-0.122l125.339,125.347l0.005,0.004l0.02,0.03
			c6.661,6.665,6.659,17.467-0.004,24.13c-6.663,6.663-17.465,6.664-24.13,0.004l-150.85-150.85
			c-2.156-2.155-5.297-2.997-8.242-2.208c-2.945,0.789-5.244,3.089-6.033,6.033c-0.789,2.944,0.053,6.086,2.208,8.242l150.85,150.85
			c6.643,6.67,6.632,17.46-0.025,24.117s-17.446,6.668-24.117,0.025L50.81,254.995v0c-0.942-0.942-1.867-1.9-2.767-2.859
			C5.169,206.186,7.033,134.354,52.232,90.69s117.053-43.047,161.494,1.388c3.332,3.332,8.735,3.332,12.067,0s3.332-8.735,0-12.067
			c-51.01-51.012-133.487-51.74-185.389-1.637s-54.083,132.555-4.902,185.332c0.094,0.103,0.124,0.238,0.224,0.338l199.117,199.125
			c10.022,10.107,25.28,12.9,38.232,6.998c12.952-5.902,20.856-19.249,19.803-33.444c0.771,0.052,1.534,0.22,2.306,0.22
			c9.447,0.034,18.479-3.88,24.915-10.795c6.436-6.916,9.691-16.205,8.98-25.625c0.771,0.052,1.533,0.22,2.306,0.22
			c9.45,0.036,18.485-3.878,24.923-10.795s9.693-16.211,8.979-25.633c0.771,0.052,1.534,0.22,2.306,0.22
			c16.413,0.026,30.506-11.666,33.51-27.802l72.223-72.223l2.358-2.433c0.041-0.034,0.058-0.091,0.099-0.127
			c0.212-0.223,0.433-0.44,0.643-0.665C525.058,209.178,523.656,127.907,473.255,77.508z M343.459,378.694
			c-6.675,6.646-17.466,6.646-24.141,0l-0.005-0.004l-0.02-0.03L200.017,259.378c1.688-1.142,3.27-2.433,4.726-3.858l19.863-19.862
			l118.772,118.772c0.036,0.037,0.046,0.087,0.082,0.124C350.118,361.222,350.118,372.024,343.459,378.694z M379.737,342.479
			c-6.641,6.683-17.442,6.718-24.126,0.077l0,0l-0.051-0.078L236.672,223.59l24.113-24.113l118.858,118.85l0.017,0.025
			C386.343,324.994,386.378,335.795,379.737,342.479z M463.96,249.628c-0.234,0.251-0.482,0.495-0.719,0.745l-65.094,65.171
			c-1.595-3.394-3.745-6.498-6.361-9.185l-0.043-0.065L272.851,187.411l16.217-16.217c15.505,15.712,36.036,25.477,58.008,27.592
			c23.974,0.295,46.897-9.83,62.825-27.75c3.322-3.334,3.318-8.728-0.01-12.056c-3.328-3.328-8.722-3.333-12.056-0.01
			c-12.528,14.432-30.688,22.738-49.8,22.775c-29.792-1.417-51.992-27.925-52.2-28.175c-1.525-1.869-3.771-3.004-6.18-3.125
			c-2.409-0.121-4.757,0.785-6.462,2.492l-28.4,28.401l-0.049,0.033l-0.033,0.049l-36.117,36.117l-0.025,0.017l-0.017,0.025
			l-25.875,25.875c-6.67,6.641-17.458,6.627-24.111-0.031s-6.659-17.445-0.014-24.111L301.188,86.766
			c45.397-42.315,116.156-41.063,160.027,2.833C505.087,133.494,506.3,204.254,463.96,249.628z"/>
	</g>
</g>
<g>
</g>
<g>
</g>
<g>
</g>
<g>
</g>
<g>
</g>
<g>
</g>
<g>
</g>
<g>
</g>
<g>
</g>
<g>
</g>
<g>
</g>
<g>
</g>
<g>
</g>
<g>
</g>
<g>
</g>
</svg>
